<?xml version="1.0" encoding="iso-8859-1"?>
<!-- Generator: Adobe Illustrator 19.0.0, SVG Export Plug-In . SVG Version: 6.00 Build 0)  -->
<svg version="1.1" id="Layer_1" xmlns="http://www.w3.org/2000/svg" xmlns:xlink="http://www.w3.org/1999/xlink" x="0px" y="0px"
	 viewBox="0 0 512 512" style="enable-background:new 0 0 512 512;" xml:space="preserve">
<g>
	<g>
		<path d="M88.816,88.816v334.367h334.367V88.816H88.816z M192.444,256.648l-7.894,7.695l1.864,10.865
			c1.079,6.298-5.556,11.003-11.12,8.079l-9.757-5.129l-9.757,5.129c-5.607,2.948-12.192-1.825-11.12-8.079l1.864-10.865
			l-7.894-7.695c-4.537-4.423-2.03-12.16,4.247-13.072l10.909-1.585l4.879-9.886c2.806-5.683,10.937-5.687,13.745,0l4.879,9.886
			l10.909,1.585C194.468,244.488,196.985,252.221,192.444,256.648z M282.904,256.648l-7.894,7.695l1.863,10.865
			c1.079,6.298-5.556,11.003-11.12,8.079l-9.757-5.129l-9.757,5.129c-5.607,2.948-12.192-1.825-11.12-8.079l1.863-10.865
			l-7.894-7.695c-4.536-4.423-2.029-12.16,4.25-13.072l10.909-1.585l4.879-9.886c2.806-5.683,10.937-5.687,13.745,0l4.879,9.886
			l10.909,1.585C284.929,244.488,287.445,252.221,282.904,256.648z M373.369,256.648l-7.894,7.695l1.863,10.865
			c1.071,6.244-5.503,11.031-11.12,8.079l-9.757-5.129l-9.757,5.129c-5.604,2.945-12.194-1.813-11.12-8.079l1.863-10.865
			l-7.894-7.695c-4.536-4.424-2.026-12.16,4.25-13.072l10.909-1.585l4.879-9.886c2.806-5.683,10.937-5.687,13.745,0l4.879,9.886
			l10.909,1.585C375.393,244.487,377.912,252.22,373.369,256.648z"/>
	</g>
</g>
<g>
	<g>
		<path d="M496.327,0H15.673C7.018,0,0,7.018,0,15.673v480.653C0,504.982,7.018,512,15.673,512h480.653
			c8.656,0,15.673-7.018,15.673-15.673V15.673C512,7.018,504.982,0,496.327,0z M454.531,438.857c0,8.656-7.018,15.673-15.673,15.673
			H73.143c-8.656,0-15.673-7.018-15.673-15.673V73.143c0-8.656,7.018-15.673,15.673-15.673h365.714
			c8.656,0,15.673,7.018,15.673,15.673V438.857z"/>
	</g>
</g>
<g>
</g>
<g>
</g>
<g>
</g>
<g>
</g>
<g>
</g>
<g>
</g>
<g>
</g>
<g>
</g>
<g>
</g>
<g>
</g>
<g>
</g>
<g>
</g>
<g>
</g>
<g>
</g>
<g>
</g>
</svg>
